<?xml version="1.0" standalone="no"?>
<!DOCTYPE svg PUBLIC "-//W3C//DTD SVG 20010904//EN"
 "http://www.w3.org/TR/2001/REC-SVG-20010904/DTD/svg10.dtd">
<svg version="1.0" xmlns="http://www.w3.org/2000/svg"
 width="817.000000pt" height="817.000000pt" viewBox="0 0 817.000000 817.000000"
 preserveAspectRatio="xMidYMid meet">
<metadata>
Created by potrace 1.14, written by Peter Selinger 2001-2017
</metadata>
<g transform="translate(0.000000,817.000000) scale(0.100000,-0.100000)"
fill="#000000" stroke="none">
<path d="M3889 7086 c-2 -2 -35 -6 -74 -10 -112 -10 -274 -35 -362 -56 -46
-11 -93 -22 -105 -24 -62 -12 -277 -83 -393 -130 -260 -106 -529 -263 -727
-423 -39 -32 -82 -67 -97 -78 -31 -23 -259 -251 -313 -313 -71 -80 -236 -308
-298 -412 -69 -113 -152 -276 -194 -380 -15 -36 -31 -74 -36 -85 -9 -22 -70
-203 -93 -280 -18 -58 -65 -274 -71 -325 -2 -19 -7 -51 -10 -70 -14 -85 -19
-142 -30 -373 -2 -36 -8 -52 -24 -63 -30 -20 -238 -190 -286 -233 -71 -62
-319 -314 -371 -376 -169 -202 -278 -382 -344 -570 -18 -49 -32 -91 -31 -93 1
-1 -4 -28 -11 -60 -20 -97 -16 -235 10 -332 19 -71 25 -86 54 -140 60 -111
123 -184 229 -265 152 -116 431 -225 662 -260 21 -3 41 -7 45 -9 3 -2 36 -7
73 -10 37 -4 77 -9 90 -11 117 -24 655 -24 873 0 17 1 65 6 108 10 l77 7 68
-50 c63 -47 193 -133 237 -158 178 -101 246 -135 390 -196 208 -89 489 -166
735 -202 190 -29 667 -29 825 -1 70 12 102 17 130 21 37 5 71 11 93 18 9 3 28
7 42 10 91 16 328 91 471 149 139 57 283 131 467 242 14 9 59 40 196 135 97
67 340 293 447 415 27 31 122 149 177 220 19 25 143 216 175 270 28 49 127
248 167 340 53 121 129 368 165 537 14 67 27 123 28 124 26 17 215 167 282
223 126 105 379 359 466 466 169 210 281 412 339 615 23 79 36 319 20 350 -4
8 -10 29 -14 45 -9 50 -18 75 -51 144 -93 190 -293 348 -565 446 -88 31 -285
80 -361 90 -30 4 -56 8 -59 10 -3 2 -37 7 -75 10 -39 4 -83 9 -100 12 -16 2
-147 7 -290 10 l-260 6 -55 60 c-79 87 -174 182 -257 256 -438 388 -1050 663
-1618 727 -33 4 -73 9 -90 11 -36 5 -471 13 -476 9z m3026 -1481 c44 -3 91 -8
105 -10 75 -11 117 -18 135 -21 11 -2 34 -7 50 -10 100 -17 258 -73 341 -119
66 -37 156 -121 181 -169 64 -122 45 -310 -46 -465 -17 -29 -31 -54 -31 -56 0
-12 -126 -180 -192 -255 -89 -102 -357 -364 -365 -357 -1 2 -5 43 -8 93 -11
196 -20 270 -56 449 -60 295 -174 606 -316 858 -18 33 -33 62 -33 67 0 8 99 6
235 -5z m-5767 -2122 c69 -351 227 -733 428 -1037 10 -16 24 -36 29 -45 15
-24 180 -241 210 -275 14 -16 25 -30 25 -31 0 -4 -105 -6 -255 -7 -181 0 -392
13 -470 28 -11 3 -40 7 -65 10 -69 8 -237 52 -310 81 -249 100 -359 254 -326
458 11 71 21 103 53 174 85 187 265 408 518 637 94 85 129 114 136 114 3 0 16
-48 27 -107z"/>
</g>
</svg>
